<?xml version="1.0" encoding="utf-8"?>
<!-- Generator: Adobe Illustrator 16.0.0, SVG Export Plug-In . SVG Version: 6.00 Build 0)  -->
<!DOCTYPE svg PUBLIC "-//W3C//DTD SVG 1.1//EN" "http://www.w3.org/Graphics/SVG/1.1/DTD/svg11.dtd">
<svg version="1.1" id="Capa_1" xmlns="http://www.w3.org/2000/svg" xmlns:xlink="http://www.w3.org/1999/xlink" x="0px" y="0px"
	 width="500px" height="700px" viewBox="0 0 500 700" enable-background="new 0 0 500 700" xml:space="preserve">
<g>
	<g>
		<circle fill="#C1C0B4" cx="250.25" cy="303.366" r="31.225"/>
		<path fill="#C1C0B4" d="M421.829,399.741l-124.805-98.795c0.047,0.796,0.062,1.624,0.062,2.42
			c0,16.752-8.774,31.443-21.998,39.717c2.795,7.588,6.292,14.239,13.567,18.454c20.312,11.709,130.612,43.559,130.612,43.559
			C427.418,407.484,428.465,405.002,421.829,399.741z"/>
		<path fill="#C1C0B4" d="M272.217,262.024c5.198-6.229,9.258-12.63,9.258-21.077c0-23.418-27.587-134.937-27.587-134.937
			c-2.03-8.259-4.7-7.916-5.933,0.453l-23.153,157.575c7.354-4.746,16.065-7.494,25.448-7.478
			C258.196,256.561,265.675,258.543,272.217,262.024z"/>
		<path fill="#C1C0B4" d="M203.444,304.912c-7.962-1.374-15.519-1.67-22.825,2.545c-20.296,11.709-103.041,91.363-103.041,91.363
			c-6.151,5.854-4.512,7.994,3.356,4.871l147.88-58.655C214.154,337.463,204.006,322.397,203.444,304.912z"/>
		<path fill="#C1C0B4" d="M250.266,350.203c-6.073,0-11.897-1.155-17.236-3.279l-13.988,237.463c0,0,7.806,15.612,31.225,15.612
			c23.418,0,31.225-15.612,31.225-15.612l-13.988-237.463C262.162,349.048,256.338,350.203,250.266,350.203z"/>
	</g>
</g>
</svg>
