<?xml version="1.0" encoding="utf-8"?>
<!-- Generator: Adobe Illustrator 16.0.0, SVG Export Plug-In . SVG Version: 6.00 Build 0)  -->
<!DOCTYPE svg PUBLIC "-//W3C//DTD SVG 1.1//EN" "http://www.w3.org/Graphics/SVG/1.1/DTD/svg11.dtd">
<svg version="1.1" id="Capa_1" xmlns="http://www.w3.org/2000/svg" xmlns:xlink="http://www.w3.org/1999/xlink" x="0px" y="0px"
	 width="500px" height="700px" viewBox="0 0 500 700" enable-background="new 0 0 500 700" xml:space="preserve">
<g>
	<g>
		<path fill="#C1C0B4" d="M499.645,402.427c-12.651-85.59-25.308-171.182-37.967-256.769c-2.646-17.923-17.647-31.44-34.895-31.44
			H73.22c-17.242,0-32.244,13.512-34.898,31.435l-6.633,44.861c-10.44,70.637-20.882,141.274-31.332,211.906
			c-1.388,9.366,1.315,18.79,7.414,25.858c6.377,7.391,15.913,11.628,26.163,11.628h70.601l66.554,69.053h-36.685
			c-4.963,0-9.272,3.847-10.02,8.939l-8.422,56.944c-0.4,2.742,0.402,5.503,2.194,7.572c1.851,2.141,4.598,3.366,7.536,3.366
			h248.614c2.945,0,5.695-1.229,7.548-3.376c1.789-2.075,2.586-4.836,2.18-7.581l-8.415-56.905
			c-0.742-5.106-5.05-8.959-10.021-8.959h-36.686l66.553-69.053h70.6c10.248,0,19.784-4.238,26.162-11.628
			C498.326,421.213,501.03,411.791,499.645,402.427z M252.34,508.96h-4.675l-66.552-69.053H318.89L252.34,508.96z M42.733,398.557
			c9.96-67.33,19.913-134.663,29.866-201.995l6.057-40.992h342.688c11.978,80.996,23.953,161.992,35.927,242.987H42.733z"/>
		<polygon fill="#C1C0B4" points="291.311,179.121 205.935,179.121 202.957,264.963 294.289,264.963 		"/>
		<path fill="#C1C0B4" d="M317.427,287.311l2.977,85.838h100.521c-4.23-28.614-8.464-57.224-12.69-85.838H317.427L317.427,287.311z"
			/>
		<polygon fill="#C1C0B4" points="202.182,287.311 199.208,373.148 298.043,373.148 295.063,287.311 		"/>
		<path fill="#C1C0B4" d="M392.238,179.121h-78.567l2.979,85.842h88.278C400.7,236.346,396.469,207.734,392.238,179.121z"/>
		<path fill="#C1C0B4" d="M98.026,226.349c-1.899,12.872-3.803,25.743-5.703,38.614h88.275l2.978-85.842h-78.563L98.026,226.349z"/>
		<path fill="#C1C0B4" d="M76.322,373.148h100.521l2.98-85.837H89.013C84.786,315.924,80.555,344.535,76.322,373.148z"/>
	</g>
</g>
</svg>
