<?xml version="1.0" encoding="utf-8"?>
<!-- Generator: Adobe Illustrator 16.0.0, SVG Export Plug-In . SVG Version: 6.00 Build 0)  -->
<!DOCTYPE svg PUBLIC "-//W3C//DTD SVG 1.1//EN" "http://www.w3.org/Graphics/SVG/1.1/DTD/svg11.dtd">
<svg version="1.1" id="Capa_1" xmlns="http://www.w3.org/2000/svg" xmlns:xlink="http://www.w3.org/1999/xlink" x="0px" y="0px"
	 width="500px" height="700px" viewBox="0 0 500 700" enable-background="new 0 0 500 700" xml:space="preserve">
<g>
	<path fill="#C1C0B4" d="M385.205,350.005c0-69.14,31.925-108.005,56.925-108.005c9.11,0,32.87,0,32.87,0
		c-16.7-26.48-30.52-42-91.435-42h-250.2C40,200,0,286.04,0,350.005C0,413.965,40,500,133.365,500h250.2
		c60.93,0,74.734-15.52,91.435-41.995c0,0-7.87,0-32.87,0S385.205,419.145,385.205,350.005z M317.19,394.87
		c-4.075,6.295-16.886,0.385-16.886,0.385l-73.92-33.405c0,0-6.59,16.711-11.7,28.496c-5.1,11.774-9.025,25.124-30.225,10.209
		c-21.2-14.92-89.505-81.265-89.505-81.265s-8.64-7.065-4.315-13.74c4.07-6.295,16.88-0.39,16.88-0.39l73.915,33.41
		c0,0,6.595-16.715,11.695-28.495c5.105-11.77,9.03-25.115,30.23-10.205c21.2,14.915,89.505,81.265,89.505,81.265
		S321.505,388.195,317.19,394.87z M471.855,298.19H453.15c-13.976,0-27.641,18.86-27.641,49.5c0,30.63,13.665,49.495,27.641,49.495
		h18.705c13.979,0,28.145-18.864,28.145-49.495C500,317.055,485.835,298.19,471.855,298.19z"/>
</g>
</svg>
