<?xml version="1.0" encoding="utf-8"?>
<!-- Generator: Adobe Illustrator 16.0.0, SVG Export Plug-In . SVG Version: 6.00 Build 0)  -->
<!DOCTYPE svg PUBLIC "-//W3C//DTD SVG 1.1//EN" "http://www.w3.org/Graphics/SVG/1.1/DTD/svg11.dtd">
<svg version="1.1" id="Capa_1" xmlns="http://www.w3.org/2000/svg" xmlns:xlink="http://www.w3.org/1999/xlink" x="0px" y="0px"
	 width="500px" height="700px" viewBox="0 0 500 700" enable-background="new 0 0 500 700" xml:space="preserve">
<path fill="#C1C0B4" d="M425,162.5h66.667c4.6,0,8.333-3.725,8.333-8.333c0-4.608-3.733-8.333-8.333-8.333H425
	c-15.483,0-28.425,10.667-32.15,25h-17.1c3.983-23.608,24.517-41.667,49.25-41.667h58.333c4.601,0,8.334-3.725,8.334-8.333
	c0-4.608-3.733-8.333-8.334-8.333H425c-33.934,0-61.967,25.5-66.092,58.333H0V587.5h500V170.833h-89.35
	C413.542,165.875,418.858,162.5,425,162.5z M91.667,260.342c7.65-7.517,16.025-14.284,25-20.225v278.1
	c-8.975-5.941-17.35-12.709-25-20.226V260.342z M133.333,230.533c8.008-4.058,16.316-7.608,25-10.35v317.958
	c-8.684-2.733-16.992-6.292-25-10.35V230.533z M175,215.858c8.117-1.65,16.5-2.517,25-2.934v332.483
	c-8.5-0.425-16.883-1.283-25-2.934V215.858z M216.667,212.925c8.5,0.425,16.883,1.284,25,2.934v326.616
	c-8.117,1.65-16.5,2.517-25,2.934V212.925z M258.334,220.184c8.683,2.733,16.991,6.292,25,10.35V527.8
	c-8.009,4.059-16.317,7.608-25,10.351V220.184z M300,240.117c8.975,5.941,17.35,12.708,25,20.225v237.649
	c-7.65,7.517-16.025,14.284-25,20.226V240.117z M341.667,279.592C362.5,307.417,375,341.816,375,379.166
	c0,37.351-12.5,71.759-33.333,99.575V279.592z M75,279.592v199.149c-20.833-27.816-33.333-62.225-33.333-99.575
	C41.667,341.816,54.167,307.408,75,279.592z M466.667,554.167H350v-50h116.667V554.167z"/>
</svg>
