<?xml version="1.0" encoding="utf-8"?>
<!-- Generator: Adobe Illustrator 16.0.0, SVG Export Plug-In . SVG Version: 6.00 Build 0)  -->
<!DOCTYPE svg PUBLIC "-//W3C//DTD SVG 1.1//EN" "http://www.w3.org/Graphics/SVG/1.1/DTD/svg11.dtd">
<svg version="1.1" id="Capa_1" xmlns="http://www.w3.org/2000/svg" xmlns:xlink="http://www.w3.org/1999/xlink" x="0px" y="0px"
	 width="500px" height="700px" viewBox="0 0 500 700" enable-background="new 0 0 500 700" xml:space="preserve">
<g>
	<path fill="#C1C0B4" d="M114.808,146.131c-6.547-3.165-13.882-4.95-21.63-4.95H77.372c-27.523,0-49.917,22.393-49.917,49.917
		v32.446H16.64C7.45,223.544,0,230.995,0,240.184s7.45,16.64,16.64,16.64h10.816v158.902H16.64c-9.19,0-16.64,7.449-16.64,16.64
		s7.45,16.64,16.64,16.64h10.816v59.901c0,27.523,22.393,49.917,49.917,49.917H93.18c7.748,0,15.081-1.784,21.629-4.949V146.131
		H114.808z"/>
	<path fill="#C1C0B4" d="M197.172,146.133c-6.549-3.165-13.882-4.951-21.631-4.951h-15.807c-7.748,0-15.083,1.786-21.631,4.951
		v407.736c6.549,3.165,13.882,4.951,21.631,4.951h15.807c7.748,0,15.083-1.786,21.631-4.951V146.133z"/>
	<path fill="#C1C0B4" d="M279.533,146.133c-6.549-3.165-13.882-4.951-21.631-4.951h-15.807c-7.747,0-15.082,1.786-21.631,4.951
		v407.736c6.549,3.165,13.882,4.951,21.631,4.951h15.807c7.748,0,15.082-1.786,21.631-4.951V146.133z"/>
	<path fill="#C1C0B4" d="M483.36,168.636h-54.909c-9.188,0-16.64,7.45-16.64,16.64v38.269h-21.633v-32.448
		c0-27.523-22.393-49.917-49.918-49.917h-15.807c-7.747,0-15.08,1.785-21.63,4.95v407.737c6.548,3.165,13.883,4.949,21.63,4.949
		h15.807c27.523,0,49.918-22.393,49.918-49.917v-59.901h10.703c0.109,0.002,10.884,0.213,20.928,5.519
		c11.909,6.29,17.456,16.697,17.456,32.751c0,9.188,7.45,16.64,16.64,16.64c9.19,0,16.641-7.449,16.641-16.64
		c0-52.493-42.787-71.547-71.548-71.547h-10.816V256.821h21.633v10.815c0,9.188,7.45,16.64,16.64,16.64h54.909
		c9.189,0,16.64-7.45,16.64-16.64v-82.362C500,176.086,492.551,168.636,483.36,168.636z"/>
</g>
</svg>
