<?xml version="1.0" encoding="utf-8"?>
<!-- Generator: Adobe Illustrator 16.0.0, SVG Export Plug-In . SVG Version: 6.00 Build 0)  -->
<!DOCTYPE svg PUBLIC "-//W3C//DTD SVG 1.1//EN" "http://www.w3.org/Graphics/SVG/1.1/DTD/svg11.dtd">
<svg version="1.1" id="Capa_1" xmlns="http://www.w3.org/2000/svg" xmlns:xlink="http://www.w3.org/1999/xlink" x="0px" y="0px"
	 width="500px" height="700px" viewBox="0 0 500 700" enable-background="new 0 0 500 700" xml:space="preserve">
<path fill="#C1C0B4" d="M475.135,109.779H24.866C11.133,109.779,0,120.912,0,134.645v98.879c0,13.732,11.133,24.866,24.866,24.866
	h20.255v306.966c0,13.732,11.133,24.865,24.866,24.865h360.028c13.732,0,24.866-11.133,24.866-24.865V258.389h20.255
	c13.732,0,24.866-11.133,24.866-24.866v-98.879C500,120.912,488.867,109.779,475.135,109.779z M395.075,522.485
	c-2.386,0.879-4.801-1.354-4.076-3.791c7.624-25.606-1.766-56.12-20.054-62.471c-1.519-0.527-3.151,0.285-3.824,1.745
	c-3.656,7.921-10.755,10.865-15.691,11.957c-2.321,0.515-4.332-1.688-3.629-3.96c5.555-17.92,0.133-41.366-13.462-51.588
	c-2.139-1.608-5.186,0.145-4.952,2.81c1.312,14.885-0.521,25.865-14.004,39.492c-13.335,13.476-20.77,40.492-12.08,59.926
	c1.148,2.569-1.533,5.205-4.116,4.086c-13.323-5.775-37.216-21.543-26.856-58.098c7.992-28.204,51.641-61.312,17.439-78.062
	c-2.889-1.414-1.941-5.801,1.271-5.914c8.441-0.296,19.266,0.936,26.843,7.593c0.012-0.086,0.012-0.176,0.023-0.262
	c5.966-42.03,31.686-50.545,43.863-52.2c2.529-0.343,4.383,2.361,3.143,4.592c-5.954,10.715-14.702,37.607,22.2,68.392
	C437.598,448.844,419.595,513.461,395.075,522.485z"/>
</svg>
