<?xml version="1.0" encoding="utf-8"?>
<!-- Generator: Adobe Illustrator 16.0.0, SVG Export Plug-In . SVG Version: 6.00 Build 0)  -->
<!DOCTYPE svg PUBLIC "-//W3C//DTD SVG 1.1//EN" "http://www.w3.org/Graphics/SVG/1.1/DTD/svg11.dtd">
<svg version="1.1" id="Capa_1" xmlns="http://www.w3.org/2000/svg" xmlns:xlink="http://www.w3.org/1999/xlink" x="0px" y="0px"
	 width="500px" height="700px" viewBox="0 0 500 700" enable-background="new 0 0 500 700" xml:space="preserve">
<path fill="#C1C0B4" d="M282.41,322.112h-8.516v-52.388h55.698c11.591,0,20.987-9.394,20.987-20.987s-9.396-20.987-20.987-20.987
	h-55.698v-30.773c17.555-7.989,29.789-25.641,29.789-46.198C303.68,122.736,280.943,100,252.907,100
	c-28.053,0-50.787,22.736-50.787,50.778c0,20.562,12.231,38.211,29.796,46.201v30.771h-14.33c-37.59,0-68.17,30.58-68.17,68.165
	c0,37.59,30.583,68.17,68.17,68.17h14.33v52.394h-3.503c-37.593,0-68.176,30.58-68.176,68.164c0,37.59,30.586,68.17,68.176,68.17
	h3.503v26.195c0,11.594,9.394,20.987,20.987,20.987c11.594,0,20.988-9.394,20.988-20.987v-26.195h28.305
	c11.594,0,20.987-9.394,20.987-20.987s-9.394-20.987-20.987-20.987h-28.303v-52.388h8.516c37.59,0,68.17-30.58,68.17-68.164
	C350.58,352.697,320,322.112,282.41,322.112z M191.395,295.917c0-14.442,11.75-26.189,26.195-26.189h14.33v52.388h-14.33
	C203.145,322.112,191.395,310.362,191.395,295.917z M231.92,510.84h-3.503c-14.448,0-26.201-11.75-26.201-26.195
	c0-14.442,11.753-26.189,26.201-26.189h3.503V510.84z M282.41,416.479h-8.516v-52.393h8.516c14.445,0,26.195,11.753,26.195,26.2
	C308.605,404.729,296.855,416.479,282.41,416.479z"/>
</svg>
