<?xml version="1.0" encoding="utf-8"?>
<!-- Generator: Adobe Illustrator 16.0.0, SVG Export Plug-In . SVG Version: 6.00 Build 0)  -->
<!DOCTYPE svg PUBLIC "-//W3C//DTD SVG 1.1//EN" "http://www.w3.org/Graphics/SVG/1.1/DTD/svg11.dtd">
<svg version="1.1" id="Layer_1" xmlns="http://www.w3.org/2000/svg" xmlns:xlink="http://www.w3.org/1999/xlink" x="0px" y="0px"
	 width="500px" height="700px" viewBox="0 0 500 700" enable-background="new 0 0 500 700" xml:space="preserve">
<g>
	<g>
		<path fill="#C1C0B4" d="M143.178,239.867c-19.254-9.998-31.337-29.886-31.337-51.581V173.09c9.356,0,16.94-7.585,16.94-16.94
			s-7.585-16.94-16.94-16.94H52.159c-9.356,0-16.94,7.585-16.94,16.94s7.584,16.94,16.94,16.94v15.197
			c0,21.695-12.083,41.583-31.337,51.581C8.028,246.511,0,259.726,0,274.142v7.408h164.001v-7.408
			C164.001,259.726,155.972,246.511,143.178,239.867z"/>
	</g>
</g>
<g>
	<g>
		<path fill="#C1C0B4" d="M0,485.973v25.837c0,27.052,21.931,48.982,48.982,48.982h66.036c27.052,0,48.982-21.931,48.982-48.982
			v-25.837H0z"/>
	</g>
</g>
<g>
	<g>
		<rect y="315.437" fill="#C1C0B4" width="164.004" height="136.653"/>
	</g>
</g>
<g>
	<g>
		<rect x="200.111" y="314.129" fill="#C1C0B4" width="164.004" height="136.653"/>
	</g>
</g>
<g>
	<g>
		<path fill="#C1C0B4" d="M200.112,484.674v27.136c0,27.052,21.931,48.982,48.982,48.982h66.036
			c27.052,0,48.982-21.931,48.982-48.982v-27.136H200.112z"/>
	</g>
</g>
<g>
	<g>
		<path fill="#C1C0B4" d="M463.112,372.986V258.959c0-41.39-33.672-75.062-75.062-75.062h-76.098V173.09
			c9.356,0,16.94-7.585,16.94-16.94s-7.585-16.94-16.94-16.94h-59.682c-9.356,0-16.94,7.585-16.94,16.94s7.585,16.94,16.94,16.94
			v15.197c0,21.695-12.083,41.583-31.337,51.581c-12.794,6.644-20.822,19.858-20.822,34.274v6.109h164.001v-6.109
			c0-14.416-8.028-27.631-20.822-34.274c-9.869-5.125-17.849-12.854-23.289-22.088h68.049c22.706,0,41.179,18.474,41.179,41.18
			v114.027c-21.403,7.117-36.888,27.318-36.888,51.082c0,9.723,2.604,18.843,7.131,26.723c2.693,4.688,6.067,8.933,9.992,12.6
			c9.623,8.988,22.528,14.506,36.704,14.506c29.682,0,53.829-24.148,53.829-53.829C500,400.307,484.516,380.104,463.112,372.986z
			 M446.171,444.016c-10.999,0-19.947-8.948-19.947-19.947s8.948-19.947,19.947-19.947s19.947,8.948,19.947,19.947
			C466.117,435.067,457.17,444.016,446.171,444.016z"/>
	</g>
</g>
</svg>
