<?xml version="1.0" encoding="utf-8"?>
<!-- Generator: Adobe Illustrator 16.0.0, SVG Export Plug-In . SVG Version: 6.00 Build 0)  -->
<!DOCTYPE svg PUBLIC "-//W3C//DTD SVG 1.1//EN" "http://www.w3.org/Graphics/SVG/1.1/DTD/svg11.dtd">
<svg version="1.1" id="Capa_1" xmlns="http://www.w3.org/2000/svg" xmlns:xlink="http://www.w3.org/1999/xlink" x="0px" y="0px"
	 width="500px" height="700px" viewBox="0 0 500 700" enable-background="new 0 0 500 700" xml:space="preserve">
<g>
	<path fill="#C1C0B4" d="M233.184,350.008c0-7.054,4.367-13.107,10.539-15.6l3.149-6.325c-10.735,1.525-19.018,10.775-19.018,21.925
		c0,10.145,6.856,18.717,16.178,21.33l0.605-5.391C237.986,363.704,233.184,357.406,233.184,350.008z"/>
	<path fill="#C1C0B4" d="M272.146,350.008c0-10.142-6.854-18.713-16.172-21.327l-0.619,5.386
		c6.654,2.242,11.461,8.541,11.461,15.941c0,7.014-4.315,13.037-10.432,15.557l-3.236,6.365
		C263.875,370.396,272.146,361.15,272.146,350.008z"/>
	<path fill="#C1C0B4" d="M262.677,347.325c0.21-0.413,0.19-0.867-0.052-1.262s-0.673-0.552-1.137-0.552h-10.133l2.183-18.962
		c0.073-0.643-0.324-1.309-0.945-1.493c-0.128-0.038-0.258-0.056-0.386-0.056c-0.492,0-0.957,0.28-1.188,0.74l-13.702,27.533
		c-0.206,0.412-0.183,0.963,0.06,1.354s0.671,0.712,1.133,0.712h9.998l-2.05,18.248c-0.071,0.641,0.325,1.18,0.942,1.363
		c0.127,0.037,0.255,0.049,0.382,0.049c0.491,0,0.956-0.273,1.188-0.729L262.677,347.325z"/>
</g>
</svg>
