<?xml version="1.0" encoding="utf-8"?>
<!-- Generator: Adobe Illustrator 16.0.0, SVG Export Plug-In . SVG Version: 6.00 Build 0)  -->
<!DOCTYPE svg PUBLIC "-//W3C//DTD SVG 1.1//EN" "http://www.w3.org/Graphics/SVG/1.1/DTD/svg11.dtd">
<svg version="1.1" id="Capa_1" xmlns="http://www.w3.org/2000/svg" xmlns:xlink="http://www.w3.org/1999/xlink" x="0px" y="0px"
	 width="500px" height="700px" viewBox="0 0 500 700" enable-background="new 0 0 500 700" xml:space="preserve">
<g>
	<path fill="#81CA9C" d="M81.837,350.089c0-70.543,43.666-131.07,105.383-155.997l31.491-63.254
		C111.358,146.089,28.53,238.59,28.53,350.089c0,101.443,68.562,187.167,161.776,213.289l6.057-53.897
		C129.857,487.041,81.837,424.068,81.837,350.089z"/>
	<path fill="#81CA9C" d="M471.471,350.089c0-101.423-68.532-187.131-161.716-213.272l-6.193,53.857
		c66.545,22.417,114.602,85.408,114.602,159.415c0,70.131-43.157,130.362-104.305,155.556l-32.364,63.664
		C388.747,553.973,471.471,461.517,471.471,350.089z"/>
	<path fill="#81CA9C" d="M376.767,323.25c2.099-4.13,1.9-8.666-0.523-12.614c-2.422-3.95-6.724-5.524-11.357-5.524H263.566
		l21.811-189.62c0.743-6.429-3.242-13.089-9.449-14.931c-1.28-0.38-2.578-0.562-3.859-0.562c-4.921,0-9.572,2.8-11.862,7.4
		L123.184,382.727c-2.056,4.13-1.829,9.629,0.6,13.554c2.43,3.923,6.715,7.118,11.331,7.118h99.983l-20.497,182.483
		c-0.716,6.403,3.25,11.789,9.424,13.635c1.268,0.38,2.552,0.483,3.82,0.483c4.911,0,9.562-2.727,11.883-7.293L376.767,323.25z"/>
</g>
</svg>
